<svg style="display: none;" aria-hidden="true" xmlns="http://www.w3.org/2000/svg" xmlns:xlink="http://www.w3.org/1999/xlink"><symbol viewBox="0 0 16 16" fill="none" id="svg-arrow"><path d="M13.65 2.35C12.2 0.9 10.21 0 8.00001 0C3.58001 0 0.0100098 3.58 0.0100098 8C0.0100098 12.42 3.58001 16 8.00001 16C11.73 16 14.84 13.45 15.73 10H13.65C12.83 12.33 10.61 14 8.00001 14C4.69001 14 2.00001 11.31 2.00001 8C2.00001 4.69 4.69001 2 8.00001 2C9.66001 2 11.14 2.69 12.22 3.78L9.00001 7H16V0L13.65 2.35Z" fill="url(#apaint0_linear_110_360)"/><defs><linearGradient id="apaint0_linear_110_360" x1="16" y1="0" x2="-.76" y2=".902" gradientUnits="userSpaceOnUse"><stop stop-color="#FFCA5E"/><stop offset="1" stop-color="#FD8354"/></linearGradient></defs></symbol><symbol viewBox="0 0 10 22" fill="none" id="svg-arrow-left"><path d="M9 20.2728L0.99997 10.7739L9 1" stroke="#8D8D8E" stroke-width="2" stroke-miterlimit="10" stroke-linecap="round" stroke-linejoin="round"/></symbol><symbol viewBox="0 0 10 22" fill="none" id="svg-arrow-right"><path d="M1 20.2728L9.00003 10.7739L1 1" stroke="#8D8D8E" stroke-width="2" stroke-miterlimit="10" stroke-linecap="round" stroke-linejoin="round"/></symbol><symbol viewBox="0 0 12 20" fill="none" id="svg-classmates"><path d="M10.3568 10.091C10.0861 10.1819 9.81544 10.2728 9.63498 10.4546C7.37935 12.0001 4.4019 11.9092 2.14626 10.3637C2.05604 10.2728 1.87559 10.1819 1.78536 10.1819C1.15378 9.90916 0.612429 10.0001 0.251527 10.5455C-0.109376 11.091 -0.109376 11.7273 0.431978 12.1819C0.612429 12.2728 0.702654 12.4546 0.883106 12.5455C2.05604 13.4546 3.40942 13.8182 4.94326 14.0001C4.85303 14.091 4.7628 14.1819 4.67258 14.2728C3.58987 15.4546 2.50717 16.6364 1.33423 17.7273C1.06356 18.0001 0.973331 18.2728 0.973331 18.5455C0.973331 19.091 1.24401 19.5455 1.78536 19.8182C2.23649 20.091 2.68762 20.0001 3.13874 19.5455C4.041 18.6364 4.85303 17.8182 5.75529 16.9092C6.02596 16.6364 6.11619 16.6364 6.29664 16.9092C7.10867 17.8182 8.01092 18.6364 8.91318 19.5455C9.18386 19.8182 9.45453 19.9092 9.72521 19.9092C10.2666 19.9092 10.8079 19.6364 10.9884 19.091C11.1688 18.6364 11.0786 18.091 10.7177 17.7273C9.54476 16.5455 8.37183 15.3637 7.28912 14.2728C7.19889 14.1819 7.10867 14.091 7.01844 14.0001C7.83047 13.9092 8.73273 13.7273 9.54476 13.4546C10.3568 13.091 11.1688 12.6364 11.7102 12.0001C12.0711 11.5455 12.0711 11.091 11.7102 10.5455C11.3493 10.1819 10.8981 10.0001 10.3568 10.091Z" fill="#8D8D8E"/><path d="M5.93579 10.0909C8.73279 10.0909 10.9884 7.81818 10.9884 5.09091C11.0787 2.27273 8.82301 0 6.02602 0C3.22903 0 0.973389 2.27273 0.973389 5C0.973389 7.81818 3.22903 10.0909 5.93579 10.0909ZM6.02602 2.54545C7.3794 2.54545 8.46211 3.63636 8.46211 5C8.46211 6.36364 7.3794 7.45455 6.02602 7.45455C4.67264 7.54545 3.58993 6.45455 3.58993 5.09091C3.4997 3.72727 4.67264 2.54545 6.02602 2.54545Z" fill="#8D8D8E"/></symbol><symbol viewBox="0 0 17 20" fill="none" id="svg-copy"><path d="M12 18H2V5C2 4.45 1.55 4 1 4C0.45 4 0 4.45 0 5V18C0 19.1 0.9 20 2 20H12C12.55 20 13 19.55 13 19C13 18.45 12.55 18 12 18ZM17 14V2C17 0.9 16.1 0 15 0H6C4.9 0 4 0.9 4 2V14C4 15.1 4.9 16 6 16H15C16.1 16 17 15.1 17 14ZM15 14H6V2H15V14Z" fill="url(#epaint0_linear_110_130)"/><defs><linearGradient id="epaint0_linear_110_130" x1="17" y1="0" x2="-.832" y2=".816" gradientUnits="userSpaceOnUse"><stop stop-color="#fff"/><stop offset="1" stop-color="#fff"/></linearGradient></defs></symbol><symbol viewBox="0 0 20 20" fill="none" id="svg-discord"><path d="M16.9419 3.52317C15.6473 2.91744 14.263 2.47723 12.8157 2.22656C12.638 2.5479 12.4304 2.98012 12.2872 3.32394C10.7487 3.09258 9.22445 3.09258 7.7143 3.32394C7.57116 2.98012 7.3588 2.5479 7.17947 2.22656C5.73067 2.47723 4.3448 2.91906 3.05016 3.52638C0.438869 7.47238 -0.269009 11.3204 0.0849305 15.1137C1.81688 16.4071 3.49534 17.1928 5.14548 17.7069C5.55291 17.1462 5.91628 16.5501 6.22931 15.9219C5.63313 15.6954 5.06211 15.4158 4.52256 15.0912C4.6657 14.9852 4.80571 14.8743 4.94098 14.7603C8.23183 16.2995 11.8074 16.2995 15.0589 14.7603C15.1958 14.8743 15.3358 14.9852 15.4774 15.0912C14.9362 15.4174 14.3637 15.6969 13.7675 15.9235C14.0805 16.5501 14.4423 17.1478 14.8513 17.7085C16.503 17.1944 18.183 16.4087 19.915 15.1137C20.3303 10.7163 19.2056 6.90361 16.9419 3.52317ZM6.67765 12.7809C5.68977 12.7809 4.87963 11.8586 4.87963 10.7355C4.87963 9.61247 5.67247 8.68864 6.67765 8.68864C7.68285 8.68864 8.49297 9.61086 8.47567 10.7355C8.47723 11.8586 7.68285 12.7809 6.67765 12.7809ZM13.3223 12.7809C12.3344 12.7809 11.5243 11.8586 11.5243 10.7355C11.5243 9.61247 12.3171 8.68864 13.3223 8.68864C14.3275 8.68864 15.1376 9.61086 15.1203 10.7355C15.1203 11.8586 14.3275 12.7809 13.3223 12.7809Z" fill="#8D8D8E"/></symbol><symbol viewBox="0 0 22 22" fill="none" id="svg-instagram"><path d="M21.9339 6.46478C21.8803 5.29388 21.6944 4.49426 21.4224 3.79468C21.1463 3.06068 20.7133 2.39584 20.1537 1.84631C19.6043 1.28671 18.9393 0.8535 18.2053 0.577225C17.5056 0.305481 16.7061 0.119675 15.5352 0.0664673C14.3621 0.0127563 13.9873 0 11 0C8.01266 0 7.63786 0.0127563 6.46478 0.0661316C5.29388 0.119675 4.49443 0.305649 3.79468 0.57756C3.06068 0.853668 2.39584 1.28671 1.84631 1.84631C1.28671 2.39568 0.8535 3.06052 0.577225 3.79451C0.305481 4.49426 0.119675 5.29388 0.0664673 6.46461C0.0127563 7.63786 0 8.0125 0 10.9998C0 13.9873 0.0127563 14.3621 0.0664673 15.5352C0.119843 16.7059 0.305817 17.5056 0.577728 18.2053C0.853836 18.9391 1.28688 19.6042 1.84648 20.1535C2.39584 20.7131 3.06085 21.1462 3.79485 21.4223C4.49443 21.6944 5.29405 21.8802 6.46495 21.9337C7.6382 21.9872 8.01283 21.9998 11.0002 21.9998C13.9875 21.9998 14.3623 21.9872 15.5354 21.9337C16.7063 21.8802 17.5057 21.6944 18.2055 21.4223C19.683 20.8509 20.8511 19.6829 21.4224 18.2053C21.6945 17.5056 21.8803 16.7059 21.9339 15.5352C21.9872 14.362 22 13.9873 22 11C22 8.0125 21.9872 7.63786 21.9339 6.46478ZM19.9538 15.4451C19.9049 16.5176 19.7257 17.1001 19.5751 17.4876C19.205 18.447 18.4469 19.2052 17.4874 19.5753C17.0999 19.7258 16.5175 19.9051 15.4449 19.9539C14.2853 20.007 13.9373 20.0181 11 20.0181C8.06252 20.0181 7.71474 20.007 6.55492 19.9539C5.48254 19.9051 4.90012 19.7258 4.51239 19.5753C4.0347 19.3989 3.60249 19.1177 3.24767 18.7523C2.88226 18.3975 2.60112 17.9655 2.42471 17.4876C2.27415 17.1001 2.09489 16.5176 2.04605 15.4451C1.99318 14.2853 1.98193 13.9373 1.98193 11.0002C1.98193 8.06285 1.99318 7.71507 2.04605 6.55508C2.09506 5.48254 2.27415 4.90012 2.42471 4.51256C2.60112 4.0347 2.88243 3.60249 3.24767 3.24767C3.60249 2.88226 4.0347 2.60112 4.51256 2.42488C4.90012 2.27415 5.48254 2.09506 6.55508 2.04605C7.7149 1.99318 8.06285 1.98193 11 1.98193H10.9998C13.937 1.98193 14.2849 1.99318 15.4449 2.04622C16.5175 2.09506 17.0997 2.27432 17.4874 2.42488C17.9651 2.60129 18.3973 2.88243 18.7522 3.24767C19.1176 3.60249 19.3987 4.0347 19.575 4.51256C19.7257 4.90012 19.9049 5.48254 19.9538 6.55508C20.0067 7.7149 20.0179 8.06285 20.0179 11C20.0179 13.9373 20.0068 14.2851 19.9538 15.4451Z" fill="#8D8D8E"/><path d="M11.0001 5.35156C7.88051 5.35156 5.35156 7.88068 5.35156 11.0003 5.35156 14.1199 7.88051 16.6488 11.0001 16.6488 14.1199 16.6488 16.6488 14.1199 16.6488 11.0003 16.6488 7.88068 14.1199 5.35156 11.0001 5.35156zM11.0001 14.6669C8.9752 14.6667 7.3335 13.0252 7.33366 11.0001 7.33366 8.9752 8.9752 7.3335 11.0003 7.3335 13.0253 7.33366 14.6669 8.9752 14.6669 11.0001 14.6669 13.0252 13.0252 14.6669 11.0001 14.6669zM18.1918 5.12773C18.1918 5.85669 17.6008 6.44768 16.8719 6.44768 16.1427 6.44768 15.5518 5.85669 15.5518 5.12773 15.5518 4.39861 16.1427 3.80762 16.8719 3.80762 17.6008 3.80762 18.1918 4.39861 18.1918 5.12773z" fill="#8D8D8E"/></symbol><symbol viewBox="0 0 18 17" fill="none" id="svg-linkedin"><path d="M4.08621 16.9997V5.5293H0.227593V16.9997H4.08654H4.08621ZM2.15757 3.96349C3.5029 3.96349 4.34043 3.08264 4.34043 1.98191C4.31515 0.856196 3.50289 0 2.18319 0C0.862486 0 0 0.856196 0 1.98191C0 3.08264 0.837198 3.96349 2.13228 3.96349H2.15723H2.15757ZM6.22186 16.9997H10.0801V10.5948C10.0801 10.2524 10.1054 9.90923 10.2072 9.66469C10.4861 8.9794 11.121 8.27013 12.1871 8.27013C13.583 8.27013 14.1417 9.32188 14.1417 10.864V16.9997H18V10.4229C18 6.89988 16.0967 5.26044 13.5581 5.26044C11.4767 5.26044 10.5626 6.40981 10.0548 7.19272H10.0805V5.52963H6.2222C6.27244 6.60571 6.22186 17 6.22186 17V16.9997Z" fill="#8D8D8E"/></symbol><symbol viewBox="0 0 15 20" fill="none" id="svg-pinterest"><path d="M13.0312 1.95588C11.7188 0.651961 9.9375 0 7.96875 0C4.875 0 3 1.21078 1.96875 2.23529C0.75 3.53922 0 5.21569 0 6.89216C0 9.03431 0.84375 10.6176 2.34375 11.2696C2.4375 11.2696 2.53125 11.3627 2.625 11.3627C2.90625 11.3627 3.1875 11.1765 3.28125 10.8039C3.375 10.6176 3.46875 10.152 3.46875 9.96569C3.5625 9.59314 3.46875 9.40686 3.28125 9.12745C2.8125 8.66177 2.625 8.0098 2.625 7.26471C2.625 4.93628 4.3125 2.51471 7.59375 2.51471C10.125 2.51471 11.7188 3.91176 11.7188 6.2402C11.7188 7.73039 11.4375 9.03431 10.7812 10.0588C10.4062 10.7108 9.65625 11.549 8.625 11.549C8.15625 11.549 7.78125 11.3627 7.5 10.9902C7.21875 10.7108 7.125 10.2451 7.3125 9.87255C7.40625 9.40686 7.59375 8.94118 7.6875 8.38235C7.96875 7.54412 8.25 6.70588 8.25 6.05392C8.25 4.93627 7.59375 4.19118 6.46875 4.19118C5.15625 4.19118 4.125 5.4951 4.125 7.26471C4.125 8.10294 4.3125 8.7549 4.40625 8.94118C4.21875 9.68628 3.28125 13.7843 3.09375 14.6225C3 15.0882 2.34375 18.7206 3.375 19C4.59375 19.3725 5.71875 15.7402 5.8125 15.3676C5.90625 15.0882 6.1875 13.7843 6.375 13.0392C6.9375 13.598 7.875 13.9706 8.8125 13.9706C10.5938 13.9706 12.0938 13.2255 13.2188 11.7353C14.25 10.3382 14.9062 8.47549 14.9062 6.33333C15 4.75 14.25 3.16667 13.0312 1.95588Z" fill="#8D8D8E"/></symbol><symbol viewBox="0 0 22 20" fill="none" id="svg-robot"><path d="M21.9996 10.1511C21.9504 8.79094 20.8335 7.7288 19.4993 7.77497C18.908 7.79598 18.3457 8.04369 17.9188 8.45916C16.0384 7.14932 13.8295 6.43135 11.559 6.38106L12.6304 1.11243L16.1654 1.87244C16.2638 2.80021 17.0768 3.47202 17.9841 3.37106C18.8915 3.27047 19.5485 2.43916 19.4497 1.51139C19.351 0.583616 18.5384 -0.0881921 17.631 0.0127668C17.1095 0.067187 16.6415 0.377945 16.3831 0.839954L12.3349 0.0127668C12.06 -0.0502856 11.7847 0.126111 11.7231 0.411723C11.7231 0.415852 11.7231 0.415852 11.7231 0.419981L10.5037 6.28048C8.20455 6.31838 5.96703 7.04048 4.06206 8.35858C3.09306 7.42668 1.56578 7.47284 0.654399 8.46779C-0.256977 9.45862 -0.21183 11.0203 0.76121 11.9522C0.950239 12.1327 1.16753 12.2881 1.40978 12.3973C1.39326 12.645 1.39326 12.8927 1.40978 13.1404C1.40978 16.9228 5.72074 20 11.0374 20C16.3541 20 20.665 16.9269 20.665 13.1404C20.6816 12.8927 20.6816 12.645 20.665 12.3973C21.4946 11.9732 22.0161 11.0999 21.9996 10.1511ZM5.48253 11.843C5.48253 10.9111 6.2258 10.1511 7.13717 10.1511C8.04855 10.1511 8.79182 10.9111 8.79182 11.843C8.79182 12.7749 8.04855 13.5349 7.13717 13.5349C6.22176 13.5262 5.48253 12.7749 5.48253 11.843ZM15.0775 16.5531V16.486C13.9033 17.3886 12.4663 17.8502 10.9963 17.7875C9.52628 17.8506 8.08966 17.3886 6.91511 16.486C6.75912 16.2927 6.78775 16.0033 6.97677 15.8438C7.14084 15.7053 7.37502 15.7053 7.54349 15.8438C8.53709 16.5869 9.74834 16.9649 10.9798 16.9059C12.2116 16.9731 13.4269 16.6121 14.4326 15.8776C14.6132 15.697 14.9086 15.7012 15.0856 15.8858C15.2621 16.0705 15.2581 16.3726 15.0775 16.5531ZM14.8518 13.6565C14.8231 13.6565 14.7985 13.6565 14.7695 13.6565L14.782 13.5934C13.8706 13.5934 13.1274 12.8334 13.1274 11.9015C13.1274 10.9696 13.8706 10.2096 14.782 10.2096C15.6934 10.2096 16.4367 10.9696 16.4367 11.9015C16.4734 12.8338 15.7631 13.6186 14.8518 13.6565Z" fill="#8D8D8E"/></symbol><symbol viewBox="0 0 21 17" fill="none" id="svg-telegram"><path d="M7.92994 11.1564L7.5008 15.7172C7.5008 15.7172 7.32117 17.1147 8.71834 15.7172C10.1155 14.3197 11.4528 13.2421 11.4528 13.2421" fill="#8D8D8E"/><path d="M5.00621 9.79032L0.407717 8.29204C0.407717 8.29204 -0.141853 8.06907 0.0351083 7.56347C0.071537 7.4592 0.145022 7.37049 0.36485 7.21802C1.38375 6.50782 19.2239 0.0955885 19.2239 0.0955885C19.2239 0.0955885 19.7276 -0.0741502 20.0247 0.0387473C20.0982 0.0614974 20.1643 0.103362 20.2163 0.160057C20.2683 0.216752 20.3044 0.286244 20.3207 0.361424C20.3528 0.494211 20.3662 0.630825 20.3606 0.767321C20.3592 0.8854 20.3449 0.994843 20.334 1.16647C20.2254 2.9196 16.9738 16.0038 16.9738 16.0038C16.9738 16.0038 16.7793 16.7694 16.0822 16.7956C15.911 16.8012 15.7403 16.7721 15.5805 16.7103C15.4206 16.6485 15.2749 16.5551 15.1519 16.4357C13.7841 15.2592 9.05654 12.082 8.01189 11.3833C7.98832 11.3672 7.96848 11.3463 7.95369 11.3219C7.9389 11.2976 7.92951 11.2703 7.92615 11.242C7.91155 11.1683 7.99163 11.0771 7.99163 11.0771C7.99163 11.0771 16.2236 3.75997 16.4426 2.99182C16.4596 2.93231 16.3955 2.90295 16.3095 2.92902C15.7627 3.13016 6.28467 9.11561 5.2386 9.77619C5.1633 9.79897 5.08371 9.80381 5.00621 9.79032V9.79032Z" fill="#8D8D8E"/></symbol><symbol viewBox="0 0 16 18" fill="none" id="svg-tiktok"><path d="M15.8059 4.50695C14.7771 4.50695 13.8278 4.16612 13.0655 3.59113C12.1912 2.93198 11.5631 1.9651 11.3412 0.850688C11.2863 0.575341 11.2567 0.291192 11.2539 0H8.31488V8.03083L8.31136 12.4297C8.31136 13.6057 7.54553 14.6029 6.48393 14.9536C6.17584 15.0553 5.8431 15.1036 5.49663 15.0846C5.05438 15.0603 4.63996 14.9268 4.27975 14.7113C3.51322 14.2529 2.99351 13.4212 2.97942 12.4698C2.95724 10.9829 4.15933 9.77058 5.64522 9.77058C5.93852 9.77058 6.22021 9.81847 6.48393 9.90544V7.71041V6.92134C6.20577 6.88015 5.92268 6.85867 5.63642 6.85867C4.01004 6.85867 2.48894 7.53471 1.40164 8.75265C0.579823 9.67305 0.0868749 10.8473 0.01082 12.0786C-0.0888259 13.6962 0.503064 15.2339 1.65093 16.3683C1.81959 16.5349 1.9967 16.6895 2.1819 16.8321C3.16604 17.5894 4.36919 18 5.63642 18C5.92268 18 6.20577 17.9789 6.48393 17.9377C7.66771 17.7623 8.75995 17.2204 9.6219 16.3683C10.681 15.3215 11.2662 13.9318 11.2726 12.4526L11.2574 5.88369C11.7627 6.27347 12.3152 6.596 12.9081 6.84635C13.8303 7.23542 14.8081 7.4326 15.8144 7.43225V5.29814V4.50625C15.8151 4.50695 15.8066 4.50695 15.8059 4.50695Z" fill="#8D8D8E"/></symbol><symbol viewBox="0 0 18 15" fill="none" id="svg-twitter"><path d="M18 1.8C17.3143 2.05714 16.6286 2.31429 15.8571 2.4C16.6286 1.97143 17.2286 1.2 17.4857 0.342857C16.8 0.771429 15.9429 1.02857 15.1714 1.2C14.4857 0.514286 13.5429 0 12.5143 0C10.4571 0 8.82857 1.62857 8.82857 3.68571C8.82857 3.94286 8.82857 4.28571 8.91429 4.54286C5.82857 4.45714 3.08571 3 1.28571 0.771429C0.942857 1.28571 0.771429 1.97143 0.771429 2.65714C0.771429 3.94286 1.45714 5.05714 2.4 5.74286C1.8 5.74286 1.2 5.57143 0.685714 5.31429C0.685714 5.31429 0.685714 5.31429 0.685714 5.4C0.685714 7.2 1.97143 8.65714 3.68571 9C3.34286 9.08571 3.08571 9.17143 2.74286 9.17143C2.48571 9.17143 2.31429 9.17143 2.05714 9.08571C2.48571 10.5429 3.85714 11.5714 5.48571 11.6571C4.2 12.5143 2.57143 13.1143 0.857143 13.1143C0.6 13.1143 0.257143 13.1143 0 13.0286C1.62857 14.0571 3.6 14.6571 5.65714 14.6571C12.4286 14.6571 16.2 9.08571 16.2 4.2C16.2 4.02857 16.2 3.85714 16.2 3.68571C16.8857 3.17143 17.4857 2.57143 18 1.8Z" fill="#8D8D8E"/></symbol><symbol viewBox="0 0 20 11" fill="none" id="svg-vk"><path fill-rule="evenodd" clip-rule="evenodd" d="M9.42274 10.9912H10.6081C10.6081 10.9912 10.9313 10.9912 11.1469 10.7757C11.3624 10.5602 11.2546 10.2369 11.2546 10.2369C11.2546 10.2369 11.2546 8.72831 12.0089 8.40504C12.7632 8.18952 13.6253 9.91364 14.5951 10.5602C15.3494 11.099 15.8881 10.9912 15.8881 10.9912H18.4743C18.4743 10.9912 19.8752 10.8834 19.2286 9.80588C19.2286 9.69812 18.9053 9.05158 17.289 7.54298C15.6726 6.03439 15.8882 6.2499 17.8278 3.66373C19.0131 2.04738 19.5519 1.07757 19.3364 0.646542C19.2286 0.215514 18.3666 0.323271 18.3666 0.323271H15.4571C15.4571 0.323271 15.2416 0.323271 15.0261 0.431028C14.9183 0.538785 14.8106 0.754299 14.8106 0.754299C14.8106 0.754299 14.3796 1.93962 13.733 3.01719C12.4399 5.17233 11.9012 5.38784 11.6856 5.17233C11.1469 4.95682 11.3624 4.09476 11.3624 3.34046C11.3624 1.18533 11.6856 0.323271 10.7158 0.107757C10.3926 4.09454e-07 10.177 0 9.31498 0C8.23741 0 7.37536 8.18908e-07 6.83658 0.215515C6.51331 0.431028 6.29779 0.754299 6.40555 0.754299C6.62106 0.754299 7.05209 0.862055 7.2676 1.18533C7.59087 1.61635 7.59087 2.47841 7.59087 2.47841C7.59087 2.47841 7.80639 4.95682 7.15984 5.28009C6.72882 5.4956 6.19003 5.06457 5.11246 3.01719C4.46592 1.93962 4.03489 0.862055 4.03489 0.862055C4.03489 0.862055 3.92714 0.646541 3.81938 0.538784C3.60387 0.431028 3.38835 0.323271 3.38835 0.323271H0.586676C0.586676 0.323271 0.155649 0.323271 0.0478919 0.538784C-0.0598649 0.646541 0.0478919 1.07757 0.0478919 1.07757C0.0478919 1.07757 2.20303 6.14214 4.68144 8.72831C6.94434 11.099 9.42274 10.9912 9.42274 10.9912Z" fill="#8D8D8E"/></symbol></svg>