<svg width="974" height="947" viewBox="0 0 974 947" fill="none" xmlns="http://www.w3.org/2000/svg">
<path opacity="0.07" d="M725.5 460C725.5 591.72 618.72 698.5 487 698.5C355.28 698.5 248.5 591.72 248.5 460C248.5 328.28 355.28 221.5 487 221.5C618.72 221.5 725.5 328.28 725.5 460ZM487 699.5C619.272 699.5 726.5 592.272 726.5 460C726.5 327.728 619.272 220.5 487 220.5C354.728 220.5 247.5 327.728 247.5 460C247.5 592.272 354.728 699.5 487 699.5ZM775.5 460C775.5 619.334 646.334 748.5 487 748.5C327.666 748.5 198.5 619.334 198.5 460C198.5 300.666 327.666 171.5 487 171.5C646.334 171.5 775.5 300.666 775.5 460ZM487 749.5C646.886 749.5 776.5 619.886 776.5 460C776.5 300.114 646.886 170.5 487 170.5C327.114 170.5 197.5 300.114 197.5 460C197.5 619.886 327.114 749.5 487 749.5ZM818.5 460C818.5 643.082 670.082 791.5 487 791.5C303.918 791.5 155.5 643.082 155.5 460C155.5 276.918 303.918 128.5 487 128.5C670.082 128.5 818.5 276.918 818.5 460ZM487 792.5C670.635 792.5 819.5 643.635 819.5 460C819.5 276.365 670.635 127.5 487 127.5C303.365 127.5 154.5 276.365 154.5 460C154.5 643.635 303.365 792.5 487 792.5ZM973.5 460C973.5 728.687 755.687 946.5 487 946.5C218.313 946.5 0.5 728.687 0.5 460C0.5 191.313 218.313 -26.5 487 -26.5C755.687 -26.5 973.5 191.313 973.5 460Z" stroke="url(#paint0_linear_326_6)"/>
<defs>
<linearGradient id="paint0_linear_326_6" x1="974" y1="-26.9998" x2="-46.871" y2="27.9791" gradientUnits="userSpaceOnUse">
<stop stop-color="#FFCA5E"/>
<stop offset="1" stop-color="#FD8354"/>
</linearGradient>
</defs>
</svg>
