<svg width="21" height="21" viewBox="0 0 21 21" fill="none" xmlns="http://www.w3.org/2000/svg">
<rect x="1" y="1" width="19" height="19" rx="9.5" stroke="url(#paint0_linear_110_487)" stroke-width="2"/>
<path d="M7.51989 10.766C7.59576 10.5899 7.72208 10.4347 7.89231 10.325L7.89268 10.3248L12.6211 7.28399L12.6216 7.28365C12.754 7.19874 12.9158 7.16864 13.0731 7.20747C13.2204 7.24385 13.3325 7.33246 13.4045 7.43106C13.5483 7.6283 13.5847 7.96136 13.3392 8.19952L7.51989 10.766ZM7.51989 10.766L5.61125 10.0222L14.7021 6.36039L13.0605 14.6053L10.9075 12.9732L10.9074 12.9732C10.5722 12.7191 10.1104 12.7333 9.79094 13.0052C9.79091 13.0053 9.79088 13.0053 9.79084 13.0053L8.69949 13.9342L8.65031 13.7691C8.91313 13.7382 9.15926 13.5491 9.20093 13.2263C9.20094 13.2262 9.20094 13.2262 9.20095 13.2261L9.33378 12.1978C9.3447 12.1134 9.38274 12.0396 9.43689 11.987L7.51989 10.766ZM9.43703 11.9868L13.3387 8.2L9.43703 11.9868ZM12.6425 7.48214C12.6427 7.48191 12.643 7.48168 12.6432 7.48145L12.6427 7.48193L12.6425 7.48214ZM8.79327 14.2491L8.79326 14.2491L8.79327 14.2491ZM5.14236 10.2111C5.14224 10.2111 5.14212 10.2112 5.142 10.2112L5.14219 10.2111L5.14236 10.2111Z" fill="#E35BE1"/>
<path d="M7.51989 10.766C7.59576 10.5899 7.72208 10.4347 7.89231 10.325L7.89268 10.3248L12.6211 7.28399L12.6216 7.28365C12.754 7.19874 12.9158 7.16864 13.0731 7.20747C13.2204 7.24385 13.3325 7.33246 13.4045 7.43106C13.5483 7.6283 13.5847 7.96136 13.3392 8.19952L7.51989 10.766ZM7.51989 10.766L5.61125 10.0222L14.7021 6.36039L13.0605 14.6053L10.9075 12.9732L10.9074 12.9732C10.5722 12.7191 10.1104 12.7333 9.79094 13.0052C9.79091 13.0053 9.79088 13.0053 9.79084 13.0053L8.69949 13.9342L8.65031 13.7691C8.91313 13.7382 9.15926 13.5491 9.20093 13.2263C9.20094 13.2262 9.20094 13.2262 9.20095 13.2261L9.33378 12.1978C9.3447 12.1134 9.38274 12.0396 9.43689 11.987L7.51989 10.766ZM9.43703 11.9868L13.3387 8.2L9.43703 11.9868ZM12.6425 7.48214C12.6427 7.48191 12.643 7.48168 12.6432 7.48145L12.6427 7.48193L12.6425 7.48214ZM8.79327 14.2491L8.79326 14.2491L8.79327 14.2491ZM5.14236 10.2111C5.14224 10.2111 5.14212 10.2112 5.142 10.2112L5.14219 10.2111L5.14236 10.2111Z" fill="url(#paint1_linear_110_487)"/>
<path d="M7.51989 10.766C7.59576 10.5899 7.72208 10.4347 7.89231 10.325L7.89268 10.3248L12.6211 7.28399L12.6216 7.28365C12.754 7.19874 12.9158 7.16864 13.0731 7.20747C13.2204 7.24385 13.3325 7.33246 13.4045 7.43106C13.5483 7.6283 13.5847 7.96136 13.3392 8.19952L7.51989 10.766ZM7.51989 10.766L5.61125 10.0222L14.7021 6.36039L13.0605 14.6053L10.9075 12.9732L10.9074 12.9732C10.5722 12.7191 10.1104 12.7333 9.79094 13.0052C9.79091 13.0053 9.79088 13.0053 9.79084 13.0053L8.69949 13.9342L8.65031 13.7691C8.91313 13.7382 9.15926 13.5491 9.20093 13.2263C9.20094 13.2262 9.20094 13.2262 9.20095 13.2261L9.33378 12.1978C9.3447 12.1134 9.38274 12.0396 9.43689 11.987L7.51989 10.766ZM9.43703 11.9868L13.3387 8.2L9.43703 11.9868ZM12.6425 7.48214C12.6427 7.48191 12.643 7.48168 12.6432 7.48145L12.6427 7.48193L12.6425 7.48214ZM8.79327 14.2491L8.79326 14.2491L8.79327 14.2491ZM5.14236 10.2111C5.14224 10.2111 5.14212 10.2112 5.142 10.2112L5.14219 10.2111L5.14236 10.2111Z" stroke="url(#paint2_linear_110_487)"/>
<defs>
<linearGradient id="paint0_linear_110_487" x1="21" y1="4.13999e-06" x2="-1.01057" y2="1.18538" gradientUnits="userSpaceOnUse">
<stop stop-color="#FFCA5E"/>
<stop offset="1" stop-color="#FD8354"/>
</linearGradient>
<linearGradient id="paint1_linear_110_487" x1="17.3843" y1="6.42917" x2="4.52079" y2="6.81218" gradientUnits="userSpaceOnUse">
<stop stop-color="#F291FF"/>
<stop offset="0.807292" stop-color="#A9B6FF"/>
</linearGradient>
<linearGradient id="paint2_linear_110_487" x1="15.2727" y1="5.7273" x2="4.2741" y2="6.37886" gradientUnits="userSpaceOnUse">
<stop stop-color="#FFCA5E"/>
<stop offset="1" stop-color="#FD8354"/>
</linearGradient>
</defs>
</svg>
