<svg width="258" height="391" viewBox="0 0 258 391" fill="none" xmlns="http://www.w3.org/2000/svg">
<rect x="0.5" y="0.5" width="257" height="390" rx="7.5" fill="url(#paint0_linear_110_225)" stroke="url(#paint1_linear_110_225)"/>
<circle cx="134" cy="196" r="93.5" stroke="#242429" stroke-width="3"/>
<path d="M133.662 103C149.791 103 165.646 107.165 179.679 115.088C193.712 123.011 205.445 134.422 213.733 148.209C222.022 161.996 226.583 177.688 226.973 193.754C227.362 209.821 223.567 225.713 215.956 239.883C208.345 254.052 197.179 266.015 183.546 274.604C169.913 283.193 154.279 288.116 138.169 288.892C122.058 289.667 106.02 286.27 91.6198 279.032C77.2192 271.793 64.947 260.959 56 247.587" stroke="url(#paint2_linear_110_225)" stroke-width="5" stroke-linecap="round"/>
<path d="M73.8281 315.625H75.3281V323.32C75.3281 324.174 75.138 324.885 74.7578 325.453C74.3776 326.021 73.8724 326.448 73.2422 326.734C72.6172 327.016 71.9375 327.156 71.2031 327.156C70.4323 327.156 69.7344 327.016 69.1094 326.734C68.4896 326.448 67.9974 326.021 67.6328 325.453C67.2734 324.885 67.0938 324.174 67.0938 323.32V315.625H68.5859V323.32C68.5859 323.914 68.6953 324.404 68.9141 324.789C69.1328 325.174 69.4375 325.461 69.8281 325.648C70.224 325.836 70.6823 325.93 71.2031 325.93C71.7292 325.93 72.1875 325.836 72.5781 325.648C72.974 325.461 73.2812 325.174 73.5 324.789C73.7188 324.404 73.8281 323.914 73.8281 323.32V315.625ZM78.9219 320.352V327H77.4766V318.547H78.8438L78.9219 320.352ZM78.5781 322.453L77.9766 322.43C77.9818 321.852 78.0677 321.318 78.2344 320.828C78.401 320.333 78.6354 319.904 78.9375 319.539C79.2396 319.174 79.599 318.893 80.0156 318.695C80.4375 318.492 80.9036 318.391 81.4141 318.391C81.8307 318.391 82.2057 318.448 82.5391 318.562C82.8724 318.672 83.1562 318.849 83.3906 319.094C83.6302 319.339 83.8125 319.656 83.9375 320.047C84.0625 320.432 84.125 320.904 84.125 321.461V327H82.6719V321.445C82.6719 321.003 82.6068 320.648 82.4766 320.383C82.3464 320.112 82.1562 319.917 81.9062 319.797C81.6562 319.672 81.349 319.609 80.9844 319.609C80.625 319.609 80.2969 319.685 80 319.836C79.7083 319.987 79.4557 320.195 79.2422 320.461C79.0339 320.727 78.8698 321.031 78.75 321.375C78.6354 321.714 78.5781 322.073 78.5781 322.453ZM87.8906 315V327H86.4375V315H87.8906ZM89.8281 322.867V322.688C89.8281 322.078 89.9167 321.513 90.0938 320.992C90.2708 320.466 90.526 320.01 90.8594 319.625C91.1927 319.234 91.5964 318.932 92.0703 318.719C92.5443 318.5 93.0755 318.391 93.6641 318.391C94.2578 318.391 94.7917 318.5 95.2656 318.719C95.7448 318.932 96.151 319.234 96.4844 319.625C96.8229 320.01 97.0807 320.466 97.2578 320.992C97.4349 321.513 97.5234 322.078 97.5234 322.688V322.867C97.5234 323.477 97.4349 324.042 97.2578 324.562C97.0807 325.083 96.8229 325.539 96.4844 325.93C96.151 326.315 95.7474 326.617 95.2734 326.836C94.8047 327.049 94.2734 327.156 93.6797 327.156C93.0859 327.156 92.5521 327.049 92.0781 326.836C91.6042 326.617 91.1979 326.315 90.8594 325.93C90.526 325.539 90.2708 325.083 90.0938 324.562C89.9167 324.042 89.8281 323.477 89.8281 322.867ZM91.2734 322.688V322.867C91.2734 323.289 91.3229 323.688 91.4219 324.062C91.5208 324.432 91.6693 324.76 91.8672 325.047C92.0703 325.333 92.3229 325.56 92.625 325.727C92.9271 325.888 93.2786 325.969 93.6797 325.969C94.0755 325.969 94.4219 325.888 94.7188 325.727C95.0208 325.56 95.2708 325.333 95.4688 325.047C95.6667 324.76 95.8151 324.432 95.9141 324.062C96.0182 323.688 96.0703 323.289 96.0703 322.867V322.688C96.0703 322.271 96.0182 321.878 95.9141 321.508C95.8151 321.133 95.6641 320.802 95.4609 320.516C95.263 320.224 95.013 319.995 94.7109 319.828C94.4141 319.661 94.0651 319.578 93.6641 319.578C93.2682 319.578 92.9193 319.661 92.6172 319.828C92.3203 319.995 92.0703 320.224 91.8672 320.516C91.6693 320.802 91.5208 321.133 91.4219 321.508C91.3229 321.878 91.2734 322.271 91.2734 322.688ZM102.719 325.969C103.062 325.969 103.38 325.898 103.672 325.758C103.964 325.617 104.203 325.424 104.391 325.18C104.578 324.93 104.685 324.646 104.711 324.328H106.086C106.06 324.828 105.891 325.294 105.578 325.727C105.271 326.154 104.867 326.5 104.367 326.766C103.867 327.026 103.318 327.156 102.719 327.156C102.083 327.156 101.529 327.044 101.055 326.82C100.586 326.596 100.195 326.289 99.8828 325.898C99.5755 325.508 99.3438 325.06 99.1875 324.555C99.0365 324.044 98.9609 323.505 98.9609 322.938V322.609C98.9609 322.042 99.0365 321.505 99.1875 321C99.3438 320.49 99.5755 320.039 99.8828 319.648C100.195 319.258 100.586 318.951 101.055 318.727C101.529 318.503 102.083 318.391 102.719 318.391C103.38 318.391 103.958 318.526 104.453 318.797C104.948 319.062 105.336 319.427 105.617 319.891C105.904 320.349 106.06 320.87 106.086 321.453H104.711C104.685 321.104 104.586 320.789 104.414 320.508C104.247 320.227 104.018 320.003 103.727 319.836C103.44 319.664 103.104 319.578 102.719 319.578C102.276 319.578 101.904 319.667 101.602 319.844C101.305 320.016 101.068 320.25 100.891 320.547C100.719 320.839 100.594 321.164 100.516 321.523C100.443 321.878 100.406 322.24 100.406 322.609V322.938C100.406 323.307 100.443 323.672 100.516 324.031C100.589 324.391 100.711 324.716 100.883 325.008C101.06 325.299 101.297 325.534 101.594 325.711C101.896 325.883 102.271 325.969 102.719 325.969ZM109.164 315V327H107.711V315H109.164ZM114.328 318.547L110.641 322.492L108.578 324.633L108.461 323.094L109.938 321.328L112.562 318.547H114.328ZM113.008 327L109.992 322.969L110.742 321.68L114.711 327H113.008ZM120.742 324.758C120.742 324.549 120.695 324.357 120.602 324.18C120.513 323.997 120.328 323.833 120.047 323.688C119.771 323.536 119.354 323.406 118.797 323.297C118.328 323.198 117.904 323.081 117.523 322.945C117.148 322.81 116.828 322.646 116.562 322.453C116.302 322.26 116.102 322.034 115.961 321.773C115.82 321.513 115.75 321.208 115.75 320.859C115.75 320.526 115.823 320.211 115.969 319.914C116.12 319.617 116.331 319.354 116.602 319.125C116.878 318.896 117.208 318.716 117.594 318.586C117.979 318.456 118.409 318.391 118.883 318.391C119.56 318.391 120.138 318.51 120.617 318.75C121.096 318.99 121.464 319.31 121.719 319.711C121.974 320.107 122.102 320.547 122.102 321.031H120.656C120.656 320.797 120.586 320.57 120.445 320.352C120.31 320.128 120.109 319.943 119.844 319.797C119.583 319.651 119.263 319.578 118.883 319.578C118.482 319.578 118.156 319.641 117.906 319.766C117.661 319.885 117.482 320.039 117.367 320.227C117.258 320.414 117.203 320.612 117.203 320.82C117.203 320.977 117.229 321.117 117.281 321.242C117.339 321.362 117.438 321.474 117.578 321.578C117.719 321.677 117.917 321.771 118.172 321.859C118.427 321.948 118.753 322.036 119.148 322.125C119.841 322.281 120.411 322.469 120.859 322.688C121.307 322.906 121.641 323.174 121.859 323.492C122.078 323.81 122.188 324.195 122.188 324.648C122.188 325.018 122.109 325.357 121.953 325.664C121.802 325.971 121.581 326.237 121.289 326.461C121.003 326.68 120.659 326.852 120.258 326.977C119.862 327.096 119.417 327.156 118.922 327.156C118.177 327.156 117.547 327.023 117.031 326.758C116.516 326.492 116.125 326.148 115.859 325.727C115.594 325.305 115.461 324.859 115.461 324.391H116.914C116.935 324.786 117.049 325.102 117.258 325.336C117.466 325.565 117.721 325.729 118.023 325.828C118.326 325.922 118.625 325.969 118.922 325.969C119.318 325.969 119.648 325.917 119.914 325.812C120.185 325.708 120.391 325.565 120.531 325.383C120.672 325.201 120.742 324.992 120.742 324.758ZM129.891 315.625V327H128.383V315.625H129.891ZM133.859 320.352V327H132.414V318.547H133.781L133.859 320.352ZM133.516 322.453L132.914 322.43C132.919 321.852 133.005 321.318 133.172 320.828C133.339 320.333 133.573 319.904 133.875 319.539C134.177 319.174 134.536 318.893 134.953 318.695C135.375 318.492 135.841 318.391 136.352 318.391C136.768 318.391 137.143 318.448 137.477 318.562C137.81 318.672 138.094 318.849 138.328 319.094C138.568 319.339 138.75 319.656 138.875 320.047C139 320.432 139.062 320.904 139.062 321.461V327H137.609V321.445C137.609 321.003 137.544 320.648 137.414 320.383C137.284 320.112 137.094 319.917 136.844 319.797C136.594 319.672 136.286 319.609 135.922 319.609C135.562 319.609 135.234 319.685 134.938 319.836C134.646 319.987 134.393 320.195 134.18 320.461C133.971 320.727 133.807 321.031 133.688 321.375C133.573 321.714 133.516 322.073 133.516 322.453ZM149.82 315.562V327H148.375V317.367L145.461 318.43V317.125L149.594 315.562H149.82ZM155.508 325.789H155.656C156.49 325.789 157.167 325.672 157.688 325.438C158.208 325.203 158.609 324.888 158.891 324.492C159.172 324.096 159.365 323.651 159.469 323.156C159.573 322.656 159.625 322.143 159.625 321.617V319.875C159.625 319.359 159.565 318.901 159.445 318.5C159.331 318.099 159.169 317.763 158.961 317.492C158.758 317.221 158.526 317.016 158.266 316.875C158.005 316.734 157.729 316.664 157.438 316.664C157.104 316.664 156.805 316.732 156.539 316.867C156.279 316.997 156.057 317.182 155.875 317.422C155.698 317.661 155.562 317.943 155.469 318.266C155.375 318.589 155.328 318.94 155.328 319.32C155.328 319.659 155.37 319.987 155.453 320.305C155.536 320.622 155.664 320.909 155.836 321.164C156.008 321.419 156.221 321.622 156.477 321.773C156.737 321.919 157.042 321.992 157.391 321.992C157.714 321.992 158.016 321.93 158.297 321.805C158.583 321.674 158.836 321.5 159.055 321.281C159.279 321.057 159.456 320.805 159.586 320.523C159.721 320.242 159.799 319.948 159.82 319.641H160.508C160.508 320.073 160.422 320.5 160.25 320.922C160.083 321.339 159.849 321.719 159.547 322.062C159.245 322.406 158.891 322.682 158.484 322.891C158.078 323.094 157.635 323.195 157.156 323.195C156.594 323.195 156.107 323.086 155.695 322.867C155.284 322.648 154.945 322.357 154.68 321.992C154.419 321.628 154.224 321.221 154.094 320.773C153.969 320.32 153.906 319.862 153.906 319.398C153.906 318.857 153.982 318.349 154.133 317.875C154.284 317.401 154.508 316.984 154.805 316.625C155.102 316.26 155.469 315.977 155.906 315.773C156.349 315.57 156.859 315.469 157.438 315.469C158.089 315.469 158.643 315.599 159.102 315.859C159.56 316.12 159.932 316.469 160.219 316.906C160.51 317.344 160.724 317.836 160.859 318.383C160.995 318.93 161.062 319.492 161.062 320.07V320.594C161.062 321.182 161.023 321.781 160.945 322.391C160.872 322.995 160.729 323.573 160.516 324.125C160.307 324.677 160.003 325.172 159.602 325.609C159.201 326.042 158.677 326.385 158.031 326.641C157.391 326.891 156.599 327.016 155.656 327.016H155.508V325.789ZM170.492 327H168.117L168.133 325.773H170.492C171.305 325.773 171.982 325.604 172.523 325.266C173.065 324.922 173.471 324.443 173.742 323.828C174.018 323.208 174.156 322.484 174.156 321.656V320.961C174.156 320.31 174.078 319.732 173.922 319.227C173.766 318.716 173.536 318.286 173.234 317.938C172.932 317.583 172.562 317.315 172.125 317.133C171.693 316.951 171.195 316.859 170.633 316.859H168.07V315.625H170.633C171.378 315.625 172.057 315.75 172.672 316C173.286 316.245 173.815 316.602 174.258 317.07C174.706 317.534 175.049 318.096 175.289 318.758C175.529 319.414 175.648 320.154 175.648 320.977V321.656C175.648 322.479 175.529 323.221 175.289 323.883C175.049 324.539 174.703 325.099 174.25 325.562C173.802 326.026 173.26 326.383 172.625 326.633C171.995 326.878 171.284 327 170.492 327ZM168.922 315.625V327H167.414V315.625H168.922ZM182.68 325.555V321.203C182.68 320.87 182.612 320.581 182.477 320.336C182.346 320.086 182.148 319.893 181.883 319.758C181.617 319.622 181.289 319.555 180.898 319.555C180.534 319.555 180.214 319.617 179.938 319.742C179.667 319.867 179.453 320.031 179.297 320.234C179.146 320.438 179.07 320.656 179.07 320.891H177.625C177.625 320.589 177.703 320.289 177.859 319.992C178.016 319.695 178.24 319.427 178.531 319.188C178.828 318.943 179.182 318.75 179.594 318.609C180.01 318.464 180.474 318.391 180.984 318.391C181.599 318.391 182.141 318.495 182.609 318.703C183.083 318.911 183.453 319.227 183.719 319.648C183.99 320.065 184.125 320.589 184.125 321.219V325.156C184.125 325.438 184.148 325.737 184.195 326.055C184.247 326.372 184.323 326.646 184.422 326.875V327H182.914C182.841 326.833 182.784 326.612 182.742 326.336C182.701 326.055 182.68 325.794 182.68 325.555ZM182.93 321.875L182.945 322.891H181.484C181.073 322.891 180.706 322.924 180.383 322.992C180.06 323.055 179.789 323.151 179.57 323.281C179.352 323.411 179.185 323.576 179.07 323.773C178.956 323.966 178.898 324.193 178.898 324.453C178.898 324.719 178.958 324.961 179.078 325.18C179.198 325.398 179.378 325.573 179.617 325.703C179.862 325.828 180.161 325.891 180.516 325.891C180.958 325.891 181.349 325.797 181.688 325.609C182.026 325.422 182.294 325.193 182.492 324.922C182.695 324.651 182.805 324.388 182.82 324.133L183.438 324.828C183.401 325.047 183.302 325.289 183.141 325.555C182.979 325.82 182.763 326.076 182.492 326.32C182.227 326.56 181.909 326.76 181.539 326.922C181.174 327.078 180.763 327.156 180.305 327.156C179.732 327.156 179.229 327.044 178.797 326.82C178.37 326.596 178.036 326.297 177.797 325.922C177.562 325.542 177.445 325.117 177.445 324.648C177.445 324.195 177.534 323.797 177.711 323.453C177.888 323.104 178.143 322.815 178.477 322.586C178.81 322.352 179.211 322.174 179.68 322.055C180.148 321.935 180.672 321.875 181.25 321.875H182.93ZM188.648 326.125L191 318.547H192.547L189.156 328.305C189.078 328.513 188.974 328.737 188.844 328.977C188.719 329.221 188.557 329.453 188.359 329.672C188.161 329.891 187.922 330.068 187.641 330.203C187.365 330.344 187.034 330.414 186.648 330.414C186.534 330.414 186.388 330.398 186.211 330.367C186.034 330.336 185.909 330.31 185.836 330.289L185.828 329.117C185.87 329.122 185.935 329.128 186.023 329.133C186.117 329.143 186.182 329.148 186.219 329.148C186.547 329.148 186.826 329.104 187.055 329.016C187.284 328.932 187.477 328.789 187.633 328.586C187.794 328.388 187.932 328.115 188.047 327.766L188.648 326.125ZM186.922 318.547L189.117 325.109L189.492 326.633L188.453 327.164L185.344 318.547H186.922ZM198.773 324.758C198.773 324.549 198.727 324.357 198.633 324.18C198.544 323.997 198.359 323.833 198.078 323.688C197.802 323.536 197.385 323.406 196.828 323.297C196.359 323.198 195.935 323.081 195.555 322.945C195.18 322.81 194.859 322.646 194.594 322.453C194.333 322.26 194.133 322.034 193.992 321.773C193.852 321.513 193.781 321.208 193.781 320.859C193.781 320.526 193.854 320.211 194 319.914C194.151 319.617 194.362 319.354 194.633 319.125C194.909 318.896 195.24 318.716 195.625 318.586C196.01 318.456 196.44 318.391 196.914 318.391C197.591 318.391 198.169 318.51 198.648 318.75C199.128 318.99 199.495 319.31 199.75 319.711C200.005 320.107 200.133 320.547 200.133 321.031H198.688C198.688 320.797 198.617 320.57 198.477 320.352C198.341 320.128 198.141 319.943 197.875 319.797C197.615 319.651 197.294 319.578 196.914 319.578C196.513 319.578 196.188 319.641 195.938 319.766C195.693 319.885 195.513 320.039 195.398 320.227C195.289 320.414 195.234 320.612 195.234 320.82C195.234 320.977 195.26 321.117 195.312 321.242C195.37 321.362 195.469 321.474 195.609 321.578C195.75 321.677 195.948 321.771 196.203 321.859C196.458 321.948 196.784 322.036 197.18 322.125C197.872 322.281 198.443 322.469 198.891 322.688C199.339 322.906 199.672 323.174 199.891 323.492C200.109 323.81 200.219 324.195 200.219 324.648C200.219 325.018 200.141 325.357 199.984 325.664C199.833 325.971 199.612 326.237 199.32 326.461C199.034 326.68 198.69 326.852 198.289 326.977C197.893 327.096 197.448 327.156 196.953 327.156C196.208 327.156 195.578 327.023 195.062 326.758C194.547 326.492 194.156 326.148 193.891 325.727C193.625 325.305 193.492 324.859 193.492 324.391H194.945C194.966 324.786 195.081 325.102 195.289 325.336C195.497 325.565 195.753 325.729 196.055 325.828C196.357 325.922 196.656 325.969 196.953 325.969C197.349 325.969 197.68 325.917 197.945 325.812C198.216 325.708 198.422 325.565 198.562 325.383C198.703 325.201 198.773 324.992 198.773 324.758Z" fill="#8D8D8E"/>
<path d="M91.5996 32.2871H92.7246C92.666 32.8262 92.5117 33.3086 92.2617 33.7344C92.0117 34.1602 91.6582 34.498 91.2012 34.748C90.7441 34.9941 90.1738 35.1172 89.4902 35.1172C88.9902 35.1172 88.5352 35.0234 88.125 34.8359C87.7188 34.6484 87.3691 34.3828 87.0762 34.0391C86.7832 33.6914 86.5566 33.2754 86.3965 32.791C86.2402 32.3027 86.1621 31.7598 86.1621 31.1621V30.3125C86.1621 29.7148 86.2402 29.1738 86.3965 28.6895C86.5566 28.2012 86.7852 27.7832 87.082 27.4355C87.3828 27.0879 87.7441 26.8203 88.166 26.6328C88.5879 26.4453 89.0625 26.3516 89.5898 26.3516C90.2344 26.3516 90.7793 26.4727 91.2246 26.7148C91.6699 26.957 92.0156 27.293 92.2617 27.7227C92.5117 28.1484 92.666 28.6426 92.7246 29.2051H91.5996C91.5449 28.8066 91.4434 28.4648 91.2949 28.1797C91.1465 27.8906 90.9355 27.668 90.6621 27.5117C90.3887 27.3555 90.0312 27.2773 89.5898 27.2773C89.2109 27.2773 88.877 27.3496 88.5879 27.4941C88.3027 27.6387 88.0625 27.8438 87.8672 28.1094C87.6758 28.375 87.5312 28.6934 87.4336 29.0645C87.3359 29.4355 87.2871 29.8477 87.2871 30.3008V31.1621C87.2871 31.5801 87.3301 31.9727 87.416 32.3398C87.5059 32.707 87.6406 33.0293 87.8203 33.3066C88 33.584 88.2285 33.8027 88.5059 33.9629C88.7832 34.1191 89.1113 34.1973 89.4902 34.1973C89.9707 34.1973 90.3535 34.1211 90.6387 33.9688C90.9238 33.8164 91.1387 33.5977 91.2832 33.3125C91.4316 33.0273 91.5371 32.6855 91.5996 32.2871ZM100.146 26.4688H101.271V32.2402C101.271 32.8809 101.129 33.4141 100.844 33.8398C100.559 34.2656 100.18 34.5859 99.707 34.8008C99.2383 35.0117 98.7285 35.1172 98.1777 35.1172C97.5996 35.1172 97.0762 35.0117 96.6074 34.8008C96.1426 34.5859 95.7734 34.2656 95.5 33.8398C95.2305 33.4141 95.0957 32.8809 95.0957 32.2402V26.4688H96.2148V32.2402C96.2148 32.6855 96.2969 33.0527 96.4609 33.3418C96.625 33.6309 96.8535 33.8457 97.1465 33.9863C97.4434 34.127 97.7871 34.1973 98.1777 34.1973C98.5723 34.1973 98.916 34.127 99.209 33.9863C99.5059 33.8457 99.7363 33.6309 99.9004 33.3418C100.064 33.0527 100.146 32.6855 100.146 32.2402V26.4688ZM104.047 26.4688H106.871C107.512 26.4688 108.053 26.5664 108.494 26.7617C108.939 26.957 109.277 27.2461 109.508 27.6289C109.742 28.0078 109.859 28.4746 109.859 29.0293C109.859 29.4199 109.779 29.7773 109.619 30.1016C109.463 30.4219 109.236 30.6953 108.939 30.9219C108.646 31.1445 108.295 31.3105 107.885 31.4199L107.568 31.543H104.914L104.902 30.623H106.906C107.312 30.623 107.65 30.5527 107.92 30.4121C108.189 30.2676 108.393 30.0742 108.529 29.832C108.666 29.5898 108.734 29.3223 108.734 29.0293C108.734 28.7012 108.67 28.4141 108.541 28.168C108.412 27.9219 108.209 27.7324 107.932 27.5996C107.658 27.4629 107.305 27.3945 106.871 27.3945H105.178V35H104.047V26.4688ZM109.033 35L106.959 31.1328L108.137 31.127L110.24 34.9297V35H109.033ZM112.441 26.4688H115.266C115.906 26.4688 116.447 26.5664 116.889 26.7617C117.334 26.957 117.672 27.2461 117.902 27.6289C118.137 28.0078 118.254 28.4746 118.254 29.0293C118.254 29.4199 118.174 29.7773 118.014 30.1016C117.857 30.4219 117.631 30.6953 117.334 30.9219C117.041 31.1445 116.689 31.3105 116.279 31.4199L115.963 31.543H113.309L113.297 30.623H115.301C115.707 30.623 116.045 30.5527 116.314 30.4121C116.584 30.2676 116.787 30.0742 116.924 29.832C117.061 29.5898 117.129 29.3223 117.129 29.0293C117.129 28.7012 117.064 28.4141 116.936 28.168C116.807 27.9219 116.604 27.7324 116.326 27.5996C116.053 27.4629 115.699 27.3945 115.266 27.3945H113.572V35H112.441V26.4688ZM117.428 35L115.354 31.1328L116.531 31.127L118.635 34.9297V35H117.428ZM126.256 34.0801V35H121.738V34.0801H126.256ZM121.967 26.4688V35H120.836V26.4688H121.967ZM125.658 30.1367V31.0566H121.738V30.1367H125.658ZM126.197 26.4688V27.3945H121.738V26.4688H126.197ZM129.014 26.4688H130.109L132.904 33.4238L135.693 26.4688H136.795L133.326 35H132.471L129.014 26.4688ZM128.656 26.4688H129.623L129.781 31.6719V35H128.656V26.4688ZM136.18 26.4688H137.146V35H136.021V31.6719L136.18 26.4688ZM143.109 26.4688V35H141.996V26.4688H143.109ZM145.852 26.4688V27.3945H139.26V26.4688H145.852ZM158.422 26.4688V35H157.285L152.99 28.4199V35H151.859V26.4688H152.99L157.303 33.0664V26.4688H158.422ZM166.846 34.0801V35H162.328V34.0801H166.846ZM162.557 26.4688V35H161.426V26.4688H162.557ZM166.248 30.1367V31.0566H162.328V30.1367H166.248ZM166.787 26.4688V27.3945H162.328V26.4688H166.787ZM173.793 32.8438C173.793 32.6445 173.762 32.4688 173.699 32.3164C173.641 32.1602 173.535 32.0195 173.383 31.8945C173.234 31.7695 173.027 31.6504 172.762 31.5371C172.5 31.4238 172.168 31.3086 171.766 31.1914C171.344 31.0664 170.963 30.9277 170.623 30.7754C170.283 30.6191 169.992 30.4414 169.75 30.2422C169.508 30.043 169.322 29.8145 169.193 29.5566C169.064 29.2988 169 29.0039 169 28.6719C169 28.3398 169.068 28.0332 169.205 27.752C169.342 27.4707 169.537 27.2266 169.791 27.0195C170.049 26.8086 170.355 26.6445 170.711 26.5273C171.066 26.4102 171.463 26.3516 171.9 26.3516C172.541 26.3516 173.084 26.4746 173.529 26.7207C173.979 26.9629 174.32 27.2812 174.555 27.6758C174.789 28.0664 174.906 28.4844 174.906 28.9297H173.781C173.781 28.6094 173.713 28.3262 173.576 28.0801C173.439 27.8301 173.232 27.6348 172.955 27.4941C172.678 27.3496 172.326 27.2773 171.9 27.2773C171.498 27.2773 171.166 27.3379 170.904 27.459C170.643 27.5801 170.447 27.7441 170.318 27.9512C170.193 28.1582 170.131 28.3945 170.131 28.6602C170.131 28.8398 170.168 29.0039 170.242 29.1523C170.32 29.2969 170.439 29.4316 170.6 29.5566C170.764 29.6816 170.971 29.7969 171.221 29.9023C171.475 30.0078 171.777 30.1094 172.129 30.207C172.613 30.3438 173.031 30.4961 173.383 30.6641C173.734 30.832 174.023 31.0215 174.25 31.2324C174.48 31.4395 174.65 31.6758 174.76 31.9414C174.873 32.2031 174.93 32.5 174.93 32.832C174.93 33.1797 174.859 33.4941 174.719 33.7754C174.578 34.0566 174.377 34.2969 174.115 34.4961C173.854 34.6953 173.539 34.8496 173.172 34.959C172.809 35.0645 172.402 35.1172 171.953 35.1172C171.559 35.1172 171.17 35.0625 170.787 34.9531C170.408 34.8438 170.062 34.6797 169.75 34.4609C169.441 34.2422 169.193 33.9727 169.006 33.6523C168.822 33.3281 168.73 32.9531 168.73 32.5273H169.855C169.855 32.8203 169.912 33.0723 170.025 33.2832C170.139 33.4902 170.293 33.6621 170.488 33.7988C170.688 33.9355 170.912 34.0371 171.162 34.1035C171.416 34.166 171.68 34.1973 171.953 34.1973C172.348 34.1973 172.682 34.1426 172.955 34.0332C173.229 33.9238 173.436 33.7676 173.576 33.5645C173.721 33.3613 173.793 33.1211 173.793 32.8438ZM180.523 26.4688V35H179.41V26.4688H180.523ZM183.266 26.4688V27.3945H176.674V26.4688H183.266Z" fill="#8D8D8E"/>
<g clip-path="url(#clip0_110_225)">
<path d="M145.158 156.213H157L134.5 185.823L145.158 156.213Z" fill="#0D47A1"/>
<path d="M112 156.213L123.842 142V156.213H112Z" fill="#84FFFF"/>
<path d="M145.158 142V156.213H157L145.158 142Z" fill="#1976D2"/>
<path d="M123.842 156.213L134.5 186L145.158 156.213H123.842ZM123.842 142H134.5L123.842 156.213V142ZM134.5 142L145.158 156.213V142H134.5Z" fill="#0091EA"/>
<path d="M145.158 156.213H123.842L134.5 142L145.158 156.213ZM145.158 156.213L151.079 153.844L157 156.213L151.079 158.581L145.158 156.213Z" fill="#00B0FF"/>
<path d="M123.842 156.213H112L134.5 186L123.842 156.213ZM123.842 156.213L134.5 153.844L145.158 156.213L134.5 158.581L123.842 156.213Z" fill="#00E5FF"/>
<path d="M112 156.213L117.921 153.844L123.842 156.213L117.921 158.581L112 156.213Z" fill="#E0F7FA"/>
</g>
<path d="M107.021 208.469V217H105.885L101.59 210.42V217H100.459V208.469H101.59L105.902 215.066V208.469H107.021ZM115.445 216.08V217H110.928V216.08H115.445ZM111.156 208.469V217H110.025V208.469H111.156ZM114.848 212.137V213.057H110.928V212.137H114.848ZM115.387 208.469V209.395H110.928V208.469H115.387ZM118.578 208.469L120.629 211.738L122.68 208.469H123.998L121.303 212.693L124.062 217H122.732L120.629 213.666L118.525 217H117.195L119.955 212.693L117.26 208.469H118.578ZM129.521 208.469V217H128.408V208.469H129.521ZM132.264 208.469V209.395H125.672V208.469H132.264ZM138.664 208.469L140.879 212.752L143.1 208.469H144.383L141.441 213.812V217H140.311V213.812L137.369 208.469H138.664ZM151.898 216.08V217H147.381V216.08H151.898ZM147.609 208.469V217H146.479V208.469H147.609ZM151.301 212.137V213.057H147.381V212.137H151.301ZM151.84 208.469V209.395H147.381V208.469H151.84ZM157.457 209.225L154.633 217H153.479L156.73 208.469H157.475L157.457 209.225ZM159.824 217L156.994 209.225L156.977 208.469H157.721L160.984 217H159.824ZM159.678 213.842V214.768H154.885V213.842H159.678ZM163.127 208.469H165.951C166.592 208.469 167.133 208.566 167.574 208.762C168.02 208.957 168.357 209.246 168.588 209.629C168.822 210.008 168.939 210.475 168.939 211.029C168.939 211.42 168.859 211.777 168.699 212.102C168.543 212.422 168.316 212.695 168.02 212.922C167.727 213.145 167.375 213.311 166.965 213.42L166.648 213.543H163.994L163.982 212.623H165.986C166.393 212.623 166.73 212.553 167 212.412C167.27 212.268 167.473 212.074 167.609 211.832C167.746 211.59 167.814 211.322 167.814 211.029C167.814 210.701 167.75 210.414 167.621 210.168C167.492 209.922 167.289 209.732 167.012 209.6C166.738 209.463 166.385 209.395 165.951 209.395H164.258V217H163.127V208.469ZM168.113 217L166.039 213.133L167.217 213.127L169.32 216.93V217H168.113Z" fill="#8D8D8E"/>
<path d="M102.76 247L100.24 240.2H102.54L105.06 247H102.76ZM99.02 241.28V239.38H100.72V241.28H99.02ZM99.02 234.68V232.8H100.72V234.68H99.02ZM102.58 237.4V236.68H104.9V237.4H102.58ZM104.9 236.7H102.58C102.58 236.06 102.413 235.567 102.08 235.22C101.747 234.86 101.287 234.68 100.7 234.68V232.8C101.527 232.8 102.253 232.967 102.88 233.3C103.507 233.633 104 234.093 104.36 234.68C104.72 235.267 104.9 235.94 104.9 236.7ZM104.9 237.38C104.9 238.14 104.72 238.813 104.36 239.4C104 239.987 103.507 240.447 102.88 240.78C102.253 241.113 101.527 241.28 100.7 241.28V239.38C101.287 239.38 101.747 239.207 102.08 238.86C102.413 238.5 102.58 238.007 102.58 237.38H104.9ZM97.2 247V232.8H99.52V247H97.2ZM112.366 247V240.22H114.686V247H112.366ZM109.966 247.3L110.266 245.5C110.692 245.5 111.059 245.393 111.366 245.18C111.686 244.953 111.932 244.633 112.106 244.22C112.279 243.807 112.366 243.32 112.366 242.76L113.406 242.66C113.406 243.553 113.252 244.353 112.946 245.06C112.639 245.753 112.226 246.3 111.706 246.7C111.199 247.1 110.619 247.3 109.966 247.3ZM109.966 247.3C109.339 247.3 108.772 247.16 108.266 246.88C107.772 246.6 107.379 246.22 107.086 245.74C106.806 245.247 106.666 244.693 106.666 244.08L108.786 243.98C108.786 244.42 108.932 244.787 109.226 245.08C109.532 245.36 109.879 245.5 110.266 245.5L109.966 247.3ZM106.666 244.08C106.666 243.467 106.826 242.92 107.146 242.44C107.479 241.96 107.926 241.58 108.486 241.3C109.046 241.007 109.672 240.86 110.366 240.86L110.566 242.46C110.046 242.46 109.619 242.6 109.286 242.88C108.952 243.16 108.786 243.527 108.786 243.98L106.666 244.08ZM110.566 242.46L110.366 240.86H113.206V242.46H110.566ZM112.366 242.76V240.32H113.406V242.66L112.366 242.76ZM114.686 240.34H112.366C112.366 239.753 112.206 239.28 111.886 238.92C111.579 238.56 111.179 238.38 110.686 238.38V236.48C111.446 236.48 112.126 236.647 112.726 236.98C113.339 237.313 113.819 237.773 114.166 238.36C114.512 238.947 114.686 239.607 114.686 240.34ZM109.006 240.06L106.906 239.66C107.012 239.02 107.232 238.467 107.566 238C107.912 237.52 108.352 237.147 108.886 236.88C109.432 236.613 110.032 236.48 110.686 236.48V238.38C110.259 238.38 109.886 238.52 109.566 238.8C109.259 239.08 109.072 239.5 109.006 240.06ZM116.692 247V236.8H119.012V247H116.692ZM118.172 240.58C118.172 239.807 118.292 239.12 118.532 238.52C118.786 237.907 119.132 237.427 119.572 237.08C120.012 236.72 120.506 236.54 121.052 236.54L120.512 238.66C120.059 238.66 119.692 238.84 119.412 239.2C119.146 239.547 119.012 240.007 119.012 240.58H118.172ZM121.872 239.28C121.672 239.093 121.452 238.947 121.212 238.84C120.972 238.72 120.739 238.66 120.512 238.66L121.052 236.54C121.372 236.54 121.666 236.6 121.932 236.72C122.199 236.84 122.472 237.033 122.752 237.3L121.872 239.28ZM124.263 242.54V241.06H131.203V242.54H124.263ZM127.203 247.32V245.42H127.343V247.32H127.203ZM123.243 243.12V240.68H125.563V243.12H123.243ZM128.883 241.06V240.32H131.203V241.06H128.883ZM131.203 240.34H128.883C128.883 239.753 128.723 239.28 128.403 238.92C128.096 238.56 127.696 238.38 127.203 238.38V236.48C127.963 236.48 128.643 236.647 129.243 236.98C129.856 237.313 130.336 237.773 130.683 238.36C131.03 238.947 131.203 239.607 131.203 240.34ZM129.023 243.74L131.103 244.14C131.01 244.767 130.79 245.32 130.443 245.8C130.11 246.28 129.676 246.653 129.143 246.92C128.61 247.187 128.003 247.32 127.323 247.32V245.42C127.763 245.42 128.136 245.28 128.443 245C128.763 244.707 128.956 244.287 129.023 243.74ZM123.243 240.68C123.243 239.88 123.416 239.167 123.763 238.54C124.11 237.9 124.583 237.4 125.183 237.04C125.783 236.667 126.456 236.48 127.203 236.48V238.38C126.696 238.38 126.296 238.58 126.003 238.98C125.71 239.38 125.563 239.947 125.563 240.68H123.243ZM123.243 243.12H125.563C125.563 243.84 125.71 244.407 126.003 244.82C126.296 245.22 126.696 245.42 127.203 245.42V247.32C126.456 247.32 125.783 247.14 125.183 246.78C124.583 246.407 124.11 245.907 123.763 245.28C123.416 244.64 123.243 243.92 123.243 243.12ZM137.005 247V236.8H139.325V247H137.005ZM142.725 247V240.22H145.045V247H142.725ZM142.725 240.24C142.725 239.68 142.571 239.233 142.265 238.9C141.958 238.567 141.565 238.4 141.085 238.4L141.725 236.48C142.351 236.48 142.911 236.647 143.405 236.98C143.911 237.3 144.311 237.747 144.605 238.32C144.898 238.88 145.045 239.52 145.045 240.24H142.725ZM138.485 240.34C138.485 239.607 138.625 238.947 138.905 238.36C139.198 237.773 139.585 237.313 140.065 236.98C140.558 236.647 141.111 236.48 141.725 236.48L141.085 238.4C140.565 238.4 140.138 238.58 139.805 238.94C139.485 239.287 139.325 239.753 139.325 240.34H138.485ZM147.7 242.54V241.06H154.64V242.54H147.7ZM150.64 247.32V245.42H150.78V247.32H150.64ZM146.68 243.12V240.68H149V243.12H146.68ZM152.32 241.06V240.32H154.64V241.06H152.32ZM154.64 240.34H152.32C152.32 239.753 152.16 239.28 151.84 238.92C151.534 238.56 151.134 238.38 150.64 238.38V236.48C151.4 236.48 152.08 236.647 152.68 236.98C153.294 237.313 153.774 237.773 154.12 238.36C154.467 238.947 154.64 239.607 154.64 240.34ZM152.46 243.74L154.54 244.14C154.447 244.767 154.227 245.32 153.88 245.8C153.547 246.28 153.114 246.653 152.58 246.92C152.047 247.187 151.44 247.32 150.76 247.32V245.42C151.2 245.42 151.574 245.28 151.88 245C152.2 244.707 152.394 244.287 152.46 243.74ZM146.68 240.68C146.68 239.88 146.854 239.167 147.2 238.54C147.547 237.9 148.02 237.4 148.62 237.04C149.22 236.667 149.894 236.48 150.64 236.48V238.38C150.134 238.38 149.734 238.58 149.44 238.98C149.147 239.38 149 239.947 149 240.68H146.68ZM146.68 243.12H149C149 243.84 149.147 244.407 149.44 244.82C149.734 245.22 150.134 245.42 150.64 245.42V247.32C149.894 247.32 149.22 247.14 148.62 246.78C148.02 246.407 147.547 245.907 147.2 245.28C146.854 244.64 146.68 243.92 146.68 243.12ZM161.355 244.3C161.355 244.007 161.235 243.76 160.995 243.56C160.755 243.36 160.442 243.173 160.055 243C159.668 242.827 159.262 242.653 158.835 242.48C158.408 242.293 158.002 242.073 157.615 241.82C157.242 241.567 156.928 241.253 156.675 240.88C156.435 240.507 156.315 240.047 156.315 239.5C156.315 239.5 156.388 239.5 156.535 239.5C156.695 239.5 156.882 239.5 157.095 239.5C157.322 239.5 157.542 239.5 157.755 239.5C157.982 239.5 158.168 239.5 158.315 239.5C158.462 239.5 158.535 239.5 158.535 239.5C158.535 239.793 158.655 240.04 158.895 240.24C159.148 240.44 159.462 240.627 159.835 240.8C160.222 240.96 160.628 241.133 161.055 241.32C161.482 241.493 161.888 241.707 162.275 241.96C162.662 242.213 162.975 242.527 163.215 242.9C163.455 243.273 163.575 243.74 163.575 244.3C163.575 244.3 163.502 244.3 163.355 244.3C163.208 244.3 163.022 244.3 162.795 244.3C162.582 244.3 162.362 244.3 162.135 244.3C161.922 244.3 161.735 244.3 161.575 244.3C161.428 244.3 161.355 244.3 161.355 244.3ZM159.855 247.3V245.42C160.295 245.42 160.655 245.313 160.935 245.1C161.215 244.887 161.355 244.62 161.355 244.3H163.575C163.575 244.9 163.422 245.427 163.115 245.88C162.808 246.333 162.375 246.687 161.815 246.94C161.255 247.18 160.602 247.3 159.855 247.3ZM156.315 239.5C156.315 238.913 156.468 238.393 156.775 237.94C157.082 237.487 157.495 237.133 158.015 236.88C158.548 236.613 159.148 236.48 159.815 236.48V238.36C159.455 238.36 159.148 238.467 158.895 238.68C158.655 238.893 158.535 239.167 158.535 239.5H156.315ZM158.175 243.72C158.242 244.28 158.428 244.707 158.735 245C159.055 245.28 159.428 245.42 159.855 245.42V247.3C159.202 247.3 158.602 247.173 158.055 246.92C157.522 246.653 157.082 246.28 156.735 245.8C156.402 245.32 156.182 244.76 156.075 244.12L158.175 243.72ZM161.495 240.06C161.428 239.487 161.235 239.06 160.915 238.78C160.608 238.5 160.235 238.36 159.795 238.36V236.48C160.475 236.48 161.082 236.613 161.615 236.88C162.148 237.133 162.582 237.5 162.915 237.98C163.262 238.447 163.482 239.007 163.575 239.66L161.495 240.06ZM166.063 243.68V232.78L168.383 232.8V243.68H166.063ZM164.903 238.6V236.8H170.903V238.6H164.903ZM166.063 243.66H168.383C168.383 244.02 168.436 244.333 168.543 244.6C168.65 244.867 168.796 245.073 168.983 245.22C169.183 245.353 169.416 245.42 169.683 245.42L169.423 247.3C168.37 247.3 167.543 246.98 166.943 246.34C166.356 245.7 166.063 244.807 166.063 243.66ZM170.583 245.08L171.463 246.62C171.143 246.86 170.81 247.033 170.463 247.14C170.13 247.247 169.783 247.3 169.423 247.3L169.683 245.42C169.856 245.42 170.016 245.387 170.163 245.32C170.31 245.253 170.45 245.173 170.583 245.08Z" fill="white"/>
<path d="M69.2 61.704V53.232H71.984V61.704H69.2ZM69.2 53.256C69.2 52.344 69.416 51.536 69.848 50.832C70.28 50.128 70.872 49.576 71.624 49.176C72.392 48.776 73.264 48.576 74.24 48.576V50.832C73.536 50.832 72.984 51.048 72.584 51.48C72.184 51.896 71.984 52.488 71.984 53.256H69.2ZM69.2 61.704H71.984C71.984 62.456 72.184 63.048 72.584 63.48C72.984 63.896 73.536 64.104 74.24 64.104V66.384C73.264 66.384 72.392 66.184 71.624 65.784C70.872 65.384 70.28 64.832 69.848 64.128C69.416 63.424 69.2 62.616 69.2 61.704ZM76.856 53.928C76.776 52.968 76.504 52.216 76.04 51.672C75.576 51.112 74.968 50.832 74.216 50.832V48.576C75.672 48.576 76.856 49.008 77.768 49.872C78.68 50.72 79.216 51.92 79.376 53.472L76.856 53.928ZM76.856 61.008L79.376 61.488C79.216 63.024 78.68 64.224 77.768 65.088C76.856 65.952 75.672 66.384 74.216 66.384V64.104C74.968 64.104 75.576 63.832 76.04 63.288C76.504 62.744 76.776 61.984 76.856 61.008ZM87.6566 61.344V58.416H90.4406V61.344H87.6566ZM80.8166 61.344V58.416H83.6006V61.344H80.8166ZM85.5446 55.656V53.4H85.7366V55.656H85.5446ZM85.5446 66.36V64.08H85.7366V66.36H85.5446ZM80.8166 58.44C80.8166 57.464 81.0246 56.6 81.4406 55.848C81.8566 55.096 82.4246 54.504 83.1446 54.072C83.8646 53.624 84.6726 53.4 85.5686 53.4V55.656C84.9606 55.656 84.4806 55.904 84.1286 56.4C83.7766 56.88 83.6006 57.56 83.6006 58.44H80.8166ZM90.4406 58.44H87.6566C87.6566 57.56 87.4806 56.88 87.1286 56.4C86.7926 55.904 86.3126 55.656 85.6886 55.656V53.4C86.6006 53.4 87.4086 53.624 88.1126 54.072C88.8326 54.504 89.4006 55.096 89.8166 55.848C90.2326 56.6 90.4406 57.464 90.4406 58.44ZM80.8166 61.32H83.6006C83.6006 62.184 83.7766 62.864 84.1286 63.36C84.4806 63.84 84.9606 64.08 85.5686 64.08V66.36C84.6726 66.36 83.8646 66.144 83.1446 65.712C82.4246 65.264 81.8566 64.664 81.4406 63.912C81.0246 63.144 80.8166 62.28 80.8166 61.32ZM90.4406 61.32C90.4406 62.28 90.2326 63.144 89.8166 63.912C89.4006 64.664 88.8326 65.264 88.1126 65.712C87.4086 66.144 86.6006 66.36 85.6886 66.36V64.08C86.3126 64.08 86.7926 63.84 87.1286 63.36C87.4806 62.864 87.6566 62.184 87.6566 61.32H90.4406ZM92.5963 66V53.76H95.3803V66H92.5963ZM98.9563 66V57.864H101.74V66H98.9563ZM94.3723 58.008C94.3723 57.128 94.5243 56.336 94.8283 55.632C95.1483 54.928 95.5723 54.376 96.1003 53.976C96.6443 53.576 97.2603 53.376 97.9483 53.376L97.1803 55.68C96.6523 55.68 96.2203 55.896 95.8843 56.328C95.5483 56.744 95.3803 57.304 95.3803 58.008H94.3723ZM98.9563 57.864C98.9563 57.208 98.7883 56.68 98.4523 56.28C98.1323 55.88 97.7083 55.68 97.1803 55.68L97.9483 53.376C98.6683 53.376 99.3163 53.576 99.8923 53.976C100.468 54.36 100.916 54.896 101.236 55.584C101.572 56.256 101.74 57.016 101.74 57.864H98.9563ZM105.316 66V57.864H108.1V66H105.316ZM100.732 58.008C100.732 57.128 100.884 56.336 101.188 55.632C101.508 54.928 101.932 54.376 102.46 53.976C103.004 53.576 103.62 53.376 104.308 53.376L103.54 55.68C103.012 55.68 102.58 55.896 102.244 56.328C101.908 56.744 101.74 57.304 101.74 58.008H100.732ZM105.316 57.864C105.316 57.208 105.148 56.68 104.812 56.28C104.492 55.88 104.068 55.68 103.54 55.68L104.308 53.376C105.028 53.376 105.676 53.576 106.252 53.976C106.828 54.36 107.276 54.896 107.596 55.584C107.932 56.256 108.1 57.016 108.1 57.864H105.316ZM110.503 66V53.76H113.287V66H110.503ZM116.863 66V57.864H119.647V66H116.863ZM112.279 58.008C112.279 57.128 112.431 56.336 112.735 55.632C113.055 54.928 113.479 54.376 114.007 53.976C114.551 53.576 115.167 53.376 115.855 53.376L115.087 55.68C114.559 55.68 114.127 55.896 113.791 56.328C113.455 56.744 113.287 57.304 113.287 58.008H112.279ZM116.863 57.864C116.863 57.208 116.695 56.68 116.359 56.28C116.039 55.88 115.615 55.68 115.087 55.68L115.855 53.376C116.575 53.376 117.223 53.576 117.799 53.976C118.375 54.36 118.823 54.896 119.143 55.584C119.479 56.256 119.647 57.016 119.647 57.864H116.863ZM123.223 66V57.864H126.007V66H123.223ZM118.639 58.008C118.639 57.128 118.791 56.336 119.095 55.632C119.415 54.928 119.839 54.376 120.367 53.976C120.911 53.576 121.527 53.376 122.215 53.376L121.447 55.68C120.919 55.68 120.487 55.896 120.151 56.328C119.815 56.744 119.647 57.304 119.647 58.008H118.639ZM123.223 57.864C123.223 57.208 123.055 56.68 122.719 56.28C122.399 55.88 121.975 55.68 121.447 55.68L122.215 53.376C122.935 53.376 123.583 53.576 124.159 53.976C124.735 54.36 125.183 54.896 125.503 55.584C125.839 56.256 126.007 57.016 126.007 57.864H123.223ZM134.813 61.344V58.416H137.597V61.344H134.813ZM127.973 61.344V58.416H130.757V61.344H127.973ZM132.701 55.656V53.4H132.893V55.656H132.701ZM132.701 66.36V64.08H132.893V66.36H132.701ZM127.973 58.44C127.973 57.464 128.181 56.6 128.597 55.848C129.013 55.096 129.581 54.504 130.301 54.072C131.021 53.624 131.829 53.4 132.725 53.4V55.656C132.117 55.656 131.637 55.904 131.285 56.4C130.933 56.88 130.757 57.56 130.757 58.44H127.973ZM137.597 58.44H134.813C134.813 57.56 134.637 56.88 134.285 56.4C133.949 55.904 133.469 55.656 132.845 55.656V53.4C133.757 53.4 134.565 53.624 135.269 54.072C135.989 54.504 136.557 55.096 136.973 55.848C137.389 56.6 137.597 57.464 137.597 58.44ZM127.973 61.32H130.757C130.757 62.184 130.933 62.864 131.285 63.36C131.637 63.84 132.117 64.08 132.725 64.08V66.36C131.829 66.36 131.021 66.144 130.301 65.712C129.581 65.264 129.013 64.664 128.597 63.912C128.181 63.144 127.973 62.28 127.973 61.32ZM137.597 61.32C137.597 62.28 137.389 63.144 136.973 63.912C136.557 64.664 135.989 65.264 135.269 65.712C134.565 66.144 133.757 66.36 132.845 66.36V64.08C133.469 64.08 133.949 63.84 134.285 63.36C134.637 62.864 134.813 62.184 134.813 61.32H137.597ZM139.753 66V53.76H142.537V66H139.753ZM146.617 66V57.864H149.401V66H146.617ZM146.617 57.888C146.617 57.216 146.433 56.68 146.065 56.28C145.697 55.88 145.225 55.68 144.648 55.68L145.417 53.376C146.169 53.376 146.841 53.576 147.433 53.976C148.041 54.36 148.521 54.896 148.873 55.584C149.225 56.256 149.401 57.024 149.401 57.888H146.617ZM141.529 58.008C141.529 57.128 141.697 56.336 142.033 55.632C142.385 54.928 142.849 54.376 143.425 53.976C144.017 53.576 144.681 53.376 145.417 53.376L144.648 55.68C144.025 55.68 143.513 55.896 143.113 56.328C142.729 56.744 142.537 57.304 142.537 58.008H141.529ZM163.9 66L157.108 48.96H159.652L166.42 66H163.9ZM156.604 66V48.96H159.388V66H156.604ZM164.596 66V48.96H167.38V66H164.596ZM170.892 60.648V58.872H179.22V60.648H170.892ZM174.42 66.384V64.104H174.588V66.384H174.42ZM169.668 61.344V58.416H172.452V61.344H169.668ZM176.436 58.872V57.984H179.22V58.872H176.436ZM179.22 58.008H176.436C176.436 57.304 176.244 56.736 175.86 56.304C175.492 55.872 175.012 55.656 174.42 55.656V53.376C175.332 53.376 176.148 53.576 176.868 53.976C177.604 54.376 178.18 54.928 178.596 55.632C179.012 56.336 179.22 57.128 179.22 58.008ZM176.604 62.088L179.1 62.568C178.988 63.32 178.724 63.984 178.308 64.56C177.908 65.136 177.388 65.584 176.748 65.904C176.108 66.224 175.38 66.384 174.564 66.384V64.104C175.092 64.104 175.54 63.936 175.908 63.6C176.292 63.248 176.524 62.744 176.604 62.088ZM169.668 58.416C169.668 57.456 169.876 56.6 170.292 55.848C170.708 55.08 171.276 54.48 171.996 54.048C172.716 53.6 173.524 53.376 174.42 53.376V55.656C173.812 55.656 173.332 55.896 172.98 56.376C172.628 56.856 172.452 57.536 172.452 58.416H169.668ZM169.668 61.344H172.452C172.452 62.208 172.628 62.888 172.98 63.384C173.332 63.864 173.812 64.104 174.42 64.104V66.384C173.524 66.384 172.716 66.168 171.996 65.736C171.276 65.288 170.708 64.688 170.292 63.936C169.876 63.168 169.668 62.304 169.668 61.344ZM187.278 62.76C187.278 62.408 187.134 62.112 186.846 61.872C186.558 61.632 186.182 61.408 185.718 61.2C185.254 60.992 184.766 60.784 184.254 60.576C183.742 60.352 183.254 60.088 182.79 59.784C182.342 59.48 181.966 59.104 181.662 58.656C181.374 58.208 181.23 57.656 181.23 57C181.23 57 181.318 57 181.494 57C181.686 57 181.91 57 182.166 57C182.438 57 182.702 57 182.958 57C183.23 57 183.454 57 183.63 57C183.806 57 183.894 57 183.894 57C183.894 57.352 184.038 57.648 184.326 57.888C184.63 58.128 185.006 58.352 185.454 58.56C185.918 58.752 186.406 58.96 186.918 59.184C187.43 59.392 187.918 59.648 188.382 59.952C188.846 60.256 189.222 60.632 189.51 61.08C189.798 61.528 189.942 62.088 189.942 62.76C189.942 62.76 189.854 62.76 189.678 62.76C189.502 62.76 189.278 62.76 189.006 62.76C188.75 62.76 188.486 62.76 188.214 62.76C187.958 62.76 187.734 62.76 187.542 62.76C187.366 62.76 187.278 62.76 187.278 62.76ZM185.478 66.36V64.104C186.006 64.104 186.438 63.976 186.774 63.72C187.11 63.464 187.278 63.144 187.278 62.76H189.942C189.942 63.48 189.758 64.112 189.39 64.656C189.022 65.2 188.502 65.624 187.83 65.928C187.158 66.216 186.374 66.36 185.478 66.36ZM181.23 57C181.23 56.296 181.414 55.672 181.782 55.128C182.15 54.584 182.646 54.16 183.27 53.856C183.91 53.536 184.63 53.376 185.43 53.376V55.632C184.998 55.632 184.63 55.76 184.326 56.016C184.038 56.272 183.894 56.6 183.894 57H181.23ZM183.462 62.064C183.542 62.736 183.766 63.248 184.134 63.6C184.518 63.936 184.966 64.104 185.478 64.104V66.36C184.694 66.36 183.974 66.208 183.318 65.904C182.678 65.584 182.15 65.136 181.734 64.56C181.334 63.984 181.07 63.312 180.942 62.544L183.462 62.064ZM187.446 57.672C187.366 56.984 187.134 56.472 186.75 56.136C186.382 55.8 185.934 55.632 185.406 55.632V53.376C186.222 53.376 186.95 53.536 187.59 53.856C188.23 54.16 188.75 54.6 189.15 55.176C189.566 55.736 189.83 56.408 189.942 57.192L187.446 57.672ZM192.927 62.016V48.936L195.711 48.96V62.016H192.927ZM191.535 55.92V53.76H198.735V55.92H191.535ZM192.927 61.992H195.711C195.711 62.424 195.775 62.8 195.903 63.12C196.031 63.44 196.207 63.688 196.431 63.864C196.671 64.024 196.951 64.104 197.271 64.104L196.959 66.36C195.695 66.36 194.703 65.976 193.983 65.208C193.279 64.44 192.927 63.368 192.927 61.992ZM198.351 63.696L199.407 65.544C199.023 65.832 198.623 66.04 198.207 66.168C197.807 66.296 197.391 66.36 196.959 66.36L197.271 64.104C197.479 64.104 197.671 64.064 197.847 63.984C198.023 63.904 198.191 63.808 198.351 63.696Z" fill="white"/>
<defs>
<linearGradient id="paint0_linear_110_225" x1="258" y1="1.90437e-05" x2="-65.7404" y2="65.3562" gradientUnits="userSpaceOnUse">
<stop stop-color="#07070C"/>
<stop offset="1" stop-color="#191920"/>
</linearGradient>
<linearGradient id="paint1_linear_110_225" x1="258" y1="178.214" x2="2.30996" y2="202.517" gradientUnits="userSpaceOnUse">
<stop stop-color="#07070C"/>
<stop offset="1" stop-color="#434355"/>
</linearGradient>
<linearGradient id="paint2_linear_110_225" x1="56" y1="103" x2="67.414" y2="297.848" gradientUnits="userSpaceOnUse">
<stop stop-color="#FFCA5E"/>
<stop offset="1" stop-color="#FD8354"/>
</linearGradient>
<clipPath id="clip0_110_225">
<rect width="45" height="44" fill="white" transform="translate(112 142)"/>
</clipPath>
</defs>
</svg>
